# xmcd
#
# Track frame offsets: 
#        150
#        19743
#        39567
#        61978
#        83085
#        107549
#        125630
#        150001
#        165199
#        188007
#        206005
#        227295
#        244242
#        258358
#        280976
#        297867
#
# Disc length: 4252 seconds
#
# Revision: 0
# Processed by: cddbd v1.5.2PL0 Copyright (c) Steve Scherf et al.
# Submitted via: ExactAudioCopyFreeDBPlugin 1.0
#
DISCID=c7109a10
DTITLE=群星 - 一人一首成名曲精华版
DYEAR=2016
DGENRE=Pop
TTITLE0=01.演员
TTITLE1=02.一次就好
TTITLE2=03.失落沙洲
TTITLE3=04.平凡之路
TTITLE4=05.曾经的你
TTITLE5=06.河流
TTITLE6=07.默
TTITLE7=08.再见
TTITLE8=09.模特
TTITLE9=10.红玫瑰
TTITLE10=11.清风徐来
TTITLE11=12.大梦想家
TTITLE12=13.夏洛特烦恼
TTITLE13=14.假如爱有天意
TTITLE14=15.我们不该这样的
TTITLE15=16.给我一个理由忘记
EXTD=
EXTT0=
EXTT1=
EXTT2=
EXTT3=
EXTT4=
EXTT5=
EXTT6=
EXTT7=
EXTT8=
EXTT9=
EXTT10=
EXTT11=
EXTT12=
EXTT13=
EXTT14=
EXTT15=
PLAYORDER=
